# xmcd
#
# Track frame offsets:
#	150
#	19076
#	38217
#	56845
#	78966
#	102388
#	127872
#
# Disc length: 1710 seconds
#
# Revision: 0
# Processed by: cddbd v1.5.1PL2 Copyright (c) Steve Scherf et al.
# Submitted via: EasyCDDAExtractor 9.0.0.1
#
DISCID=5106ac07
DTITLE=Various Artist - groovetuit
DYEAR=2003
DGENRE=Blues
TTITLE0=Brian Culbertson - Serpentine Fire
TTITLE1=Bob James - Morning, Noon and Night
TTITLE2=Norman Brown - Night Drive
TTITLE3=Kirk Whalum - Do You Feel Me
TTITLE4=Rick Braun - Turquoise
TTITLE5=Pat Metheny - Don't Know Why
TTITLE6=text - text
EXTD=
EXTT0=
EXTT1=
EXTT2=
EXTT3=
EXTT4=
EXTT5=
EXTT6=
PLAYORDER=
